<svg version="1.1" xmlns="http://www.w3.org/2000/svg" xmlns:xlink="http://www.w3.org/1999/xlink" width="24" height="24" viewBox="753.5,456,24,24"><g id="document" fill="none" fill-rule="nonzero" stroke="#000000" stroke-width="0" stroke-linecap="butt" stroke-linejoin="miter" stroke-miterlimit="10" stroke-dasharray="" stroke-dashoffset="0" font-family="none" font-weight="none" font-size="none" text-anchor="none" style="mix-blend-mode: normal"><rect x="21977.08333" y="9500" transform="scale(0.03429,0.048)" width="700" height="500" id="Shape 1 1" vector-effect="non-scaling-stroke"/></g><g fill="#000000" fill-rule="nonzero" stroke="none" stroke-width="1" stroke-linecap="none" stroke-linejoin="none" stroke-miterlimit="10" stroke-dasharray="" stroke-dashoffset="0" font-family="none" font-weight="none" font-size="none" text-anchor="none" style="mix-blend-mode: normal"><g id="stage"><g id="layer1 1"><path d="M770.29686,459.78877v5.58333h5.58333v-5.58333z" id="Path 1" stroke="#000000" stroke-linecap="round" stroke-linejoin="round"/><path d="M755.15078,477.27174v-17.81133v0c0.15786,0 0.47795,-0.00438 0.96029,-0.01315v0v0c0.48234,-0.00877 1.0129,-0.01315 1.59171,-0.01315v0v0c0.5788,0 1.14007,-0.00438 1.68379,-0.01315v0v0c0.54372,-0.00877 0.9559,-0.01315 1.23653,-0.01315v0v0c2.22751,0 3.90692,0.41656 5.03821,1.24969v0v0c1.1313,0.83312 1.69694,1.96004 1.69694,3.38073v0v0c0,0.89451 -0.28502,1.68379 -0.85505,2.36783v0v0c-0.57003,0.68404 -1.40754,1.21022 -2.51253,1.57855v0v0c1.31546,0.38587 2.29329,0.94713 2.93348,1.68379v0v0c0.64019,0.73666 0.96029,1.61363 0.96029,2.63092v0v0c0,3.3325 -2.51691,4.99875 -7.55074,4.99875v0v0c-0.24555,0 -0.61827,0 -1.11814,0v0v0c-0.49987,0 -1.02167,-0.00438 -1.5654,-0.01315v0v0c-0.54372,-0.00877 -1.04798,-0.01315 -1.51278,-0.01315v0v0c-0.4648,0 -0.79366,0 -0.98659,0v0M759.4918,469.69469v4.73566h1.28915v0c0.35079,0 0.67965,-0.03508 0.98659,-0.10524v0v0c0.30694,-0.07016 0.57442,-0.18855 0.80243,-0.35517v0v0c0.22801,-0.16662 0.40779,-0.39464 0.53934,-0.68404v0v0c0.13155,-0.2894 0.19732,-0.65335 0.19732,-1.09183v0v0c0,-0.33325 -0.04385,-0.65335 -0.13155,-0.96029v0v0c-0.0877,-0.30694 -0.23678,-0.5788 -0.44726,-0.81559v0v0c-0.21047,-0.23678 -0.48672,-0.42533 -0.82874,-0.56565v0v0c-0.34202,-0.14032 -0.75858,-0.21047 -1.24969,-0.21047v0v0c-0.24555,0 -0.46918,0.00438 -0.67088,0.01315v0v0c-0.2017,0.00877 -0.36394,0.02192 -0.48672,0.03946v0M759.4918,462.3018v4.63042h1.21022v0c0.54372,0 1.03044,-0.16662 1.46016,-0.49987v0v0c0.42972,-0.33325 0.64458,-0.93836 0.64458,-1.81533v0v0c0,-0.73666 -0.17101,-1.31108 -0.51303,-1.72325v0v0c-0.34202,-0.41218 -0.90767,-0.61827 -1.69694,-0.61827v0v0c-0.22801,0 -0.44287,0 -0.64458,0v0v0c-0.2017,0 -0.35517,0.00877 -0.46041,0.02631z" id="CompoundPath 1" stroke="none" stroke-linecap="butt" stroke-linejoin="miter"/></g></g></g></svg>