<svg version="1.1" xmlns="http://www.w3.org/2000/svg" xmlns:xlink="http://www.w3.org/1999/xlink" width="24" height="24" viewBox="753.5,456,24,24"><g id="document" fill="none" fill-rule="nonzero" stroke="#000000" stroke-width="0" stroke-linecap="butt" stroke-linejoin="miter" stroke-miterlimit="10" stroke-dasharray="" stroke-dashoffset="0" font-family="none" font-weight="none" font-size="none" text-anchor="none" style="mix-blend-mode: normal"><rect x="21977.08333" y="9500" transform="scale(0.03429,0.048)" width="700" height="500" id="Shape 1 1" vector-effect="non-scaling-stroke"/></g><g fill="#000000" fill-rule="nonzero" stroke="none" stroke-width="1" stroke-linecap="butt" stroke-linejoin="miter" stroke-miterlimit="10" stroke-dasharray="" stroke-dashoffset="0" font-family="none" font-weight="none" font-size="none" text-anchor="none" style="mix-blend-mode: normal"><g id="stage"><g id="layer1 1"><path d="M768.06859,461.4336l-2.36783,2.39414v0c-0.49111,-0.59634 -0.96467,-0.99536 -1.4207,-1.19707v0v0c-0.45603,-0.2017 -0.91205,-0.30256 -1.36808,-0.30256v0v0c-1.14007,0 -1.96881,0.53057 -2.48622,1.59171v0v0c-0.51741,1.06114 -0.77612,2.53007 -0.77612,4.40679v0v0c0,0.89451 0.057,1.71448 0.17101,2.45991v0v0c0.11401,0.74543 0.31133,1.38123 0.59196,1.90742v0v0c0.28063,0.52618 0.65335,0.93836 1.11814,1.23653v0v0c0.4648,0.29817 1.04798,0.44726 1.74956,0.44726v0v0c0.61388,0 1.21461,-0.07454 1.80218,-0.22363v0v0c0.58757,-0.14909 1.12691,-0.3201 1.61802,-0.51303v0l0.94713,2.94663v0c-0.54372,0.22801 -1.22776,0.42972 -2.05212,0.60511v0v0c-0.82435,0.17539 -1.77149,0.26309 -2.84139,0.26309v0v0c-2.70108,0 -4.67427,-0.76735 -5.91957,-2.30205v0v0c-1.2453,-1.5347 -1.86795,-3.71398 -1.86795,-6.53784v0v0c0,-1.36808 0.16224,-2.62215 0.48672,-3.76222v0v0c0.32448,-1.14007 0.81559,-2.12666 1.47332,-2.95978v0v0c0.65773,-0.83312 1.48208,-1.48208 2.47306,-1.94688v0v0c0.99098,-0.4648 2.16174,-0.69719 3.51228,-0.69719v0v0c0.70158,0 1.31984,0.06139 1.8548,0.18416v0v0c0.53495,0.12278 1.00413,0.28502 1.40754,0.48672v0v0c0.40341,0.2017 0.75858,0.4341 1.06552,0.69719v0v0c0.30694,0.26309 0.58319,0.53495 0.82874,0.81559z" id="CompoundPath 1"/></g></g></g></svg>