<svg version="1.1" xmlns="http://www.w3.org/2000/svg" xmlns:xlink="http://www.w3.org/1999/xlink" width="24" height="24" viewBox="753.5,456,24,24"><g id="document" fill="none" fill-rule="nonzero" stroke="#000000" stroke-width="0" stroke-linecap="butt" stroke-linejoin="miter" stroke-miterlimit="10" stroke-dasharray="" stroke-dashoffset="0" font-family="none" font-weight="none" font-size="none" text-anchor="none" style="mix-blend-mode: normal"><rect x="21977.08333" y="9500" transform="scale(0.03429,0.048)" width="700" height="500" id="Shape 1 1" vector-effect="non-scaling-stroke"/></g><g fill="#000000" fill-rule="nonzero" stroke="none" stroke-width="1" stroke-linecap="none" stroke-linejoin="none" stroke-miterlimit="10" stroke-dasharray="" stroke-dashoffset="0" font-family="none" font-weight="none" font-size="none" text-anchor="none" style="mix-blend-mode: normal"><g id="stage"><g id="layer1 1"><path d="M770.29686,459.78877v5.58333h5.58333v-5.58333z" id="Path 1" stroke="#000000" stroke-linecap="round" stroke-linejoin="round"/><path d="M763.3724,478.61865l-1.57855,-2.4563v0c0.56126,-0.28342 1.03044,-0.56684 1.40754,-0.85026v0v0c0.3771,-0.28342 0.68404,-0.59833 0.92082,-0.94473v0v0c0.23678,-0.3464 0.40779,-0.72823 0.51303,-1.14548v0v0c0.10524,-0.41726 0.15786,-0.88568 0.15786,-1.40528v0v-0.16533v0c-0.35079,0.59833 -0.85943,1.05888 -1.52593,1.38167v0v0c-0.6665,0.32278 -1.45578,0.48417 -2.36783,0.48417v0v0c-1.03483,0 -1.95127,-0.18107 -2.74931,-0.54322v0v0c-0.79805,-0.36215 -1.46455,-0.88568 -1.9995,-1.57061v0v0c-0.53495,-0.68493 -0.94275,-1.51944 -1.22338,-2.50353v0v0c-0.28063,-0.98409 -0.42095,-2.09809 -0.42095,-3.34198v0v0c0,-1.2124 0.16224,-2.33427 0.48672,-3.3656v0v0c0.32448,-1.03133 0.81997,-1.92095 1.48647,-2.66886v0v0c0.6665,-0.74791 1.51278,-1.33049 2.53884,-1.74775v0v0c1.02606,-0.41726 2.24067,-0.62588 3.64382,-0.62588v0v0c1.03483,0 2.03019,0.17714 2.98609,0.53141v0v0c0.9559,0.35427 1.74956,0.87781 2.38098,1.57061v0l-2.02581,2.22011v0c-0.50864,-0.44087 -1.05237,-0.81089 -1.63117,-1.11006v0v0c-0.5788,-0.29916 -1.14884,-0.44875 -1.7101,-0.44875v0v0c-1.2453,0 -2.13543,0.48024 -2.67038,1.44071v0v0c-0.53495,0.96047 -0.80243,2.2831 -0.80243,3.96786v0v0c0,0.81877 0.05262,1.56274 0.15786,2.23192v0v0c0.10524,0.66918 0.26748,1.23996 0.48672,1.71232v0v0c0.21924,0.47236 0.49111,0.83451 0.81559,1.08644v0v0c0.32448,0.25193 0.71473,0.37789 1.17076,0.37789v0v0c0.35079,0 0.67965,-0.11809 0.98659,-0.35427v0v0c0.30694,-0.23618 0.5788,-0.53928 0.81559,-0.9093v0v0c0.23678,-0.37002 0.42095,-0.78334 0.55249,-1.23996v0v0c0.13155,-0.45662 0.19732,-0.91324 0.19732,-1.36986v0v-1.77137h4.15685v7.53421v0c0,0.96047 -0.14909,1.76743 -0.44726,2.42087v0v0c-0.29817,0.65344 -0.68842,1.20453 -1.17076,1.65328v0v0c-0.48234,0.44875 -1.03483,0.8227 -1.65748,1.12187v0v0c-0.62265,0.29916 -1.24969,0.56684 -1.88111,0.80302z" id="CompoundPath 1" stroke="none" stroke-linecap="butt" stroke-linejoin="miter"/></g></g></g></svg>