<svg version="1.1" xmlns="http://www.w3.org/2000/svg" xmlns:xlink="http://www.w3.org/1999/xlink" width="24" height="24" viewBox="753.5,456,24,24"><g id="document" fill="none" fill-rule="nonzero" stroke="#000000" stroke-width="0" stroke-linecap="butt" stroke-linejoin="miter" stroke-miterlimit="10" stroke-dasharray="" stroke-dashoffset="0" font-family="none" font-weight="none" font-size="none" text-anchor="none" style="mix-blend-mode: normal"><rect x="21977.08333" y="9500" transform="scale(0.03429,0.048)" width="700" height="500" id="Shape 1 1" vector-effect="non-scaling-stroke"/></g><g fill="#000000" fill-rule="nonzero" stroke="none" stroke-width="1" stroke-linecap="butt" stroke-linejoin="miter" stroke-miterlimit="10" stroke-dasharray="" stroke-dashoffset="0" font-family="none" font-weight="none" font-size="none" text-anchor="none" style="mix-blend-mode: normal"><g id="stage"><g id="layer1 1"><path d="M764.68786,466.26134l-0.07893,-6.81408h4.34102v17.81133h-3.7096l-5.07768,-7.68229v0c-0.10524,-0.15786 -0.24994,-0.38587 -0.4341,-0.68404v0v0c-0.18416,-0.29817 -0.3771,-0.6095 -0.5788,-0.93398v0v0c-0.2017,-0.32448 -0.39464,-0.64019 -0.5788,-0.94713v0v0c-0.18416,-0.30694 -0.33763,-0.55688 -0.46041,-0.74981v0v0c0.01754,0.26309 0.03946,0.58319 0.06577,0.96029v0v0c0.02631,0.3771 0.05262,0.75858 0.07893,1.14445v0v0c0.02631,0.38587 0.04823,0.76297 0.06577,1.1313v0v0c0.01754,0.36833 0.02631,0.67527 0.02631,0.92082v0l0.07893,6.84039h-4.34102v-17.81133h3.55174l5.13029,7.62967v0c0.15786,0.24555 0.33325,0.5218 0.52618,0.82874v0v0c0.19293,0.30694 0.39025,0.61827 0.59196,0.93398v0v0c0.2017,0.31571 0.39025,0.61827 0.56565,0.90767v0v0c0.17539,0.2894 0.32448,0.53934 0.44726,0.74981v0v0c-0.01754,-0.28063 -0.03508,-0.60511 -0.05262,-0.97344v0v0c-0.01754,-0.36833 -0.03946,-0.74981 -0.06577,-1.14445v0v0c-0.02631,-0.39464 -0.04823,-0.77612 -0.06577,-1.14445v0v0c-0.01754,-0.36833 -0.02631,-0.69281 -0.02631,-0.97344z" id="CompoundPath 1"/></g></g></g></svg>