<svg version="1.1" xmlns="http://www.w3.org/2000/svg" xmlns:xlink="http://www.w3.org/1999/xlink" width="24" height="24" viewBox="753.5,456,24,24"><g id="document" fill="none" fill-rule="nonzero" stroke="#000000" stroke-width="0" stroke-linecap="butt" stroke-linejoin="miter" stroke-miterlimit="10" stroke-dasharray="" stroke-dashoffset="0" font-family="none" font-weight="none" font-size="none" text-anchor="none" style="mix-blend-mode: normal"><rect x="21977.08333" y="9500" transform="scale(0.03429,0.048)" width="700" height="500" id="Shape 1 1" vector-effect="non-scaling-stroke"/></g><g fill="#000000" fill-rule="nonzero" stroke="none" stroke-width="1" stroke-linecap="none" stroke-linejoin="none" stroke-miterlimit="10" stroke-dasharray="" stroke-dashoffset="0" font-family="none" font-weight="none" font-size="none" text-anchor="none" style="mix-blend-mode: normal"><g id="stage"><g id="layer1 1"><path d="M770.29686,459.78877v5.58333h5.58333v-5.58333z" id="Path 1" stroke="#000000" stroke-linecap="round" stroke-linejoin="round"/><path d="M761.91008,459.24994v0c1.38562,0 2.5783,0.21047 3.57805,0.63142v0v0c0.99975,0.42095 1.8241,1.01729 2.47306,1.78903v0v0c0.64896,0.77174 1.12691,1.71448 1.43385,2.82824v0v0c0.30694,1.11376 0.46041,2.36344 0.46041,3.74906v0v0c0,1.36808 -0.17101,2.61777 -0.51303,3.74906v0v0c-0.34202,1.1313 -0.85505,2.10035 -1.53909,2.90717v0v0c-0.68404,0.80682 -1.54347,1.43385 -2.5783,1.88111v0v0c-1.03483,0.44726 -2.25382,0.67088 -3.65698,0.67088v0v0c-1.38562,0 -2.58269,-0.19732 -3.59121,-0.59196v0v0c-1.00852,-0.39464 -1.83726,-0.97344 -2.48622,-1.73641v0v0c-0.64896,-0.76297 -1.12691,-1.68817 -1.43385,-2.77562v0v0c-0.30694,-1.08745 -0.46041,-2.33275 -0.46041,-3.73591v0v0c0,-1.36808 0.17101,-2.62654 0.51303,-3.77537v0v0c0.34202,-1.14884 0.85505,-2.13981 1.53909,-2.97294v0v0c0.68404,-0.83312 1.54786,-1.4777 2.59146,-1.93373v0v0c1.0436,-0.45603 2.26698,-0.68404 3.67013,-0.68404v0M761.54175,462.32811v0c-1.14007,0 -1.96881,0.53057 -2.48622,1.59171v0v0c-0.51741,1.06114 -0.77612,2.53007 -0.77612,4.40679v0v0c0,0.89451 0.057,1.7101 0.17101,2.44676v0v0c0.11401,0.73666 0.30694,1.37246 0.5788,1.90742v0v0c0.27186,0.53495 0.64458,0.95152 1.11814,1.24969v0v0c0.47357,0.29817 1.06991,0.44726 1.78903,0.44726v0v0c1.14007,0 1.96442,-0.50864 2.47306,-1.52593v0v0c0.50864,-1.01729 0.76297,-2.4643 0.76297,-4.34102v0v0c0,-0.89451 -0.057,-1.71887 -0.17101,-2.47306v0v0c-0.11401,-0.7542 -0.30694,-1.40754 -0.5788,-1.96004v0v0c-0.27186,-0.55249 -0.64458,-0.98221 -1.11814,-1.28915v0v0c-0.47357,-0.30694 -1.06114,-0.46041 -1.76272,-0.46041z" id="CompoundPath 1" stroke="none" stroke-linecap="butt" stroke-linejoin="miter"/></g></g></g></svg>