<svg version="1.1" xmlns="http://www.w3.org/2000/svg" xmlns:xlink="http://www.w3.org/1999/xlink" width="24" height="24" viewBox="753.5,456,24,24"><g id="document" fill="none" fill-rule="nonzero" stroke="#000000" stroke-width="0" stroke-linecap="butt" stroke-linejoin="miter" stroke-miterlimit="10" stroke-dasharray="" stroke-dashoffset="0" font-family="none" font-weight="none" font-size="none" text-anchor="none" style="mix-blend-mode: normal"><rect x="21977.08333" y="9500" transform="scale(0.03429,0.048)" width="700" height="500" id="Shape 1 1" vector-effect="non-scaling-stroke"/></g><g fill="#000000" fill-rule="nonzero" stroke="none" stroke-width="1" stroke-linecap="none" stroke-linejoin="none" stroke-miterlimit="10" stroke-dasharray="" stroke-dashoffset="0" font-family="none" font-weight="none" font-size="none" text-anchor="none" style="mix-blend-mode: normal"><g id="stage"><g id="layer1 1"><path d="M770.29686,459.78877v5.58333h5.58333v-5.58333z" id="Path 1" stroke="#000000" stroke-linecap="round" stroke-linejoin="round"/><path d="M755.41387,477.28489v-17.81133v0c0.12278,0 0.41656,-0.00438 0.88136,-0.01315v0v0c0.4648,-0.00877 0.97783,-0.01315 1.53909,-0.01315v0v0c0.56126,0 1.12253,-0.00438 1.68379,-0.01315v0v0c0.56126,-0.00877 1.01729,-0.01315 1.36808,-0.01315v0v0c2.24505,0 3.92884,0.47795 5.05137,1.43385v0v0c1.12253,0.9559 1.68379,2.28452 1.68379,3.98584v0v0c0,1.87672 -0.63142,3.28427 -1.89426,4.22263v0v0c-1.26284,0.93836 -2.99048,1.40754 -5.18291,1.40754v0h-0.78928v6.81408h-4.34102M759.75489,462.34127v5.26184h1.10499v0c0.59634,0 1.11376,-0.20609 1.55224,-0.61827v0v0c0.43849,-0.41218 0.65773,-1.05675 0.65773,-1.93373v0v0c0,-0.73666 -0.17978,-1.37685 -0.53934,-1.92057v0v0c-0.35956,-0.54372 -0.96029,-0.82435 -1.80218,-0.84189v0v0c-0.22801,0 -0.42095,0.00438 -0.5788,0.01315v0v0c-0.15786,0.00877 -0.2894,0.02192 -0.39464,0.03946z" id="CompoundPath 1" stroke="none" stroke-linecap="butt" stroke-linejoin="miter"/></g></g></g></svg>