<svg version="1.1" xmlns="http://www.w3.org/2000/svg" xmlns:xlink="http://www.w3.org/1999/xlink" width="24" height="24" viewBox="753.5,456,24,24"><g id="document" fill="none" fill-rule="nonzero" stroke="#000000" stroke-width="0" stroke-linecap="butt" stroke-linejoin="miter" stroke-miterlimit="10" stroke-dasharray="" stroke-dashoffset="0" font-family="none" font-weight="none" font-size="none" text-anchor="none" style="mix-blend-mode: normal"><rect x="21977.08333" y="9500" transform="scale(0.03429,0.048)" width="700" height="500" id="Shape 1 1" vector-effect="non-scaling-stroke"/></g><g fill="#000000" fill-rule="nonzero" stroke="none" stroke-width="1" stroke-linecap="none" stroke-linejoin="none" stroke-miterlimit="10" stroke-dasharray="" stroke-dashoffset="0" font-family="none" font-weight="none" font-size="none" text-anchor="none" style="mix-blend-mode: normal"><g id="stage"><g id="layer1 1"><path d="M770.29686,459.78877v5.58333h5.58333v-5.58333z" id="Path 1" stroke="#000000" stroke-linecap="round" stroke-linejoin="round"/><path d="M754.46674,477.28489v-17.81133v0c0.15786,0 0.47357,-0.00438 0.94713,-0.01315v0v0c0.47357,-0.00877 0.99975,-0.01315 1.57855,-0.01315v0v0c0.5788,0 1.14007,-0.00438 1.68379,-0.01315v0v0c0.54372,-0.00877 0.96467,-0.01315 1.26284,-0.01315v0v0c2.24505,0 3.92884,0.42972 5.05137,1.28915v0v0c1.12253,0.85943 1.68379,2.13105 1.68379,3.81483v0v0c0,1.12253 -0.27186,2.04773 -0.81559,2.77562v0v0c-0.54372,0.72789 -1.28038,1.29354 -2.20997,1.69694v0v0c0.52618,0.29817 0.99098,0.69281 1.39439,1.18391v0v0c0.40341,0.49111 0.78928,1.08306 1.1576,1.77587v0v0c0.36833,0.69281 0.74104,1.48647 1.11814,2.38098v0v0c0.3771,0.89451 0.79366,1.87672 1.24969,2.94663v0h-4.65673v0c-0.56126,-1.22776 -1.03483,-2.31082 -1.4207,-3.24919v0v0c-0.38587,-0.93836 -0.74543,-1.72764 -1.07868,-2.36783v0v0c-0.33325,-0.64019 -0.66211,-1.12253 -0.98659,-1.44701v0v0c-0.32448,-0.32448 -0.71473,-0.48672 -1.17076,-0.48672v0h-0.44726v7.55074h-4.34102M758.80776,462.26234v4.76197h1.10499v0c0.61388,0 1.13568,-0.18855 1.5654,-0.56565v0v0c0.42972,-0.3771 0.64458,-0.96906 0.64458,-1.77587v0v0c0,-0.33325 -0.03946,-0.64458 -0.11839,-0.93398v0v0c-0.07893,-0.2894 -0.20609,-0.54372 -0.38148,-0.76297v0v0c-0.17539,-0.21924 -0.41656,-0.39464 -0.7235,-0.52618v0v0c-0.30694,-0.13155 -0.67965,-0.19732 -1.11814,-0.19732v0z" id="CompoundPath 1" stroke="none" stroke-linecap="butt" stroke-linejoin="miter"/></g></g></g></svg>