<svg version="1.1" xmlns="http://www.w3.org/2000/svg" xmlns:xlink="http://www.w3.org/1999/xlink" width="24" height="24" viewBox="753.5,456,24,24"><g id="document" fill="none" fill-rule="nonzero" stroke="#000000" stroke-width="0" stroke-linecap="butt" stroke-linejoin="miter" stroke-miterlimit="10" stroke-dasharray="" stroke-dashoffset="0" font-family="none" font-weight="none" font-size="none" text-anchor="none" style="mix-blend-mode: normal"><rect x="21977.08333" y="9500" transform="scale(0.03429,0.048)" width="700" height="500" id="Shape 1 1" vector-effect="non-scaling-stroke"/></g><g fill="#000000" fill-rule="nonzero" stroke="none" stroke-width="1" stroke-linecap="butt" stroke-linejoin="miter" stroke-miterlimit="10" stroke-dasharray="" stroke-dashoffset="0" font-family="none" font-weight="none" font-size="none" text-anchor="none" style="mix-blend-mode: normal"><g id="stage"><g id="layer1 1"><path d="M758.38093,477.22031l-4.78742,0.09065l5.34713,-9.44268l-5.15823,-8.37541l4.73481,-0.08965l2.58409,4.45075v0c0.07247,0.12143 0.15884,0.28206 0.25911,0.4819v0v0c0.10027,0.19984 0.21377,0.40382 0.34051,0.61193v0v0c0.1191,-0.19522 0.22505,-0.3902 0.31785,-0.58492v0v0c0.0928,-0.19473 0.18171,-0.36306 0.26673,-0.50501v0l2.43956,-4.57219l4.73481,-0.08965l-4.86328,8.59148l5.70025,9.2072l-4.78742,0.09065l-3.04571,-5.20511v0c-0.09034,-0.13863 -0.19003,-0.30778 -0.29906,-0.50746v0v0c-0.10904,-0.19968 -0.22692,-0.40357 -0.35366,-0.61168v0l-0.58359,1.14255z" id="CompoundPath 1"/></g></g></g></svg>